<svg width="26" height="26" viewBox="0 0 26 26" fill="none" xmlns="http://www.w3.org/2000/svg">
<path d="M22.2497 14.0689C20.1974 8.72813 12.5696 8.66632 15.4625 0C9.93632 2.48492 5.55989 8.87649 9.88687 17.3203C3.76729 14.7488 6.45001 8.3078 6.45001 8.3078C6.45001 8.3078 3.11206 10.36 3.11206 16.5661C3.58185 23.4893 9.42945 25.6157 11.5311 25.8877C14.5353 26.2709 17.7867 25.7146 20.1233 23.5758C22.6947 21.1898 23.6343 17.3821 22.2497 14.0689ZM10.777 20.2873C12.5572 19.8546 13.4721 18.5689 13.7193 17.4315C14.1273 15.6637 12.5325 13.9329 13.6081 11.1389C14.016 13.4507 17.6507 14.8972 17.6507 17.4192C17.7496 20.547 14.3622 23.2297 10.777 20.2873Z" fill="#000F18"/>
</svg>
