<svg width="25" height="24" viewBox="0 0 25 24" fill="none" xmlns="http://www.w3.org/2000/svg">
<path d="M12.2007 1.03384C12.2007 1.03384 4.65343 7.54073 0.43606 11.0643C0.187943 11.2888 0 11.6151 0 12.0003C0 12.6737 0.545365 13.2184 1.22032 13.2184H3.66035V21.748C3.66035 22.4215 4.20571 22.9662 4.88066 22.9662H8.54099C9.21533 22.9662 9.76069 22.4202 9.76069 21.748V16.8739H14.6413V21.748C14.6413 22.4202 15.1867 22.9662 15.8611 22.9662H19.5214C20.1963 22.9662 20.7417 22.4215 20.7417 21.748V13.2184H23.1817C23.8567 13.2184 24.402 12.6737 24.402 12.0003C24.402 11.6151 24.2141 11.2888 23.9347 11.0643C19.7462 7.54073 12.2007 1.03384 12.2007 1.03384Z" fill="#000F18"/>
</svg>
